 <svg version="1.1" id="Layer_1" xmlns="http://www.w3.org/2000/svg" xmlns:xlink="http://www.w3.org/1999/xlink" x="0px" y="0px" viewBox="0 0 19 19" style="enable-background:new 0 0 19 19;" xml:space="preserve"> <style type="text/css"> .st0 { opacity: 0; fill: #4f4f4f; } .st1 { fill: #4f4f4f; } </style> <g> <rect class="st0" width="19" height="19" /> <g> <rect class="st1" width="1" height="1" /> <rect x="1" y="1" class="st1" width="1" height="1" /> <rect x="2" y="2" class="st1" width="1" height="1" /> <rect x="3" y="3" class="st1" width="1" height="1" /> <rect x="4" y="4" class="st1" width="1" height="1" /> <rect x="5" y="3" class="st1" width="1" height="1" /> <rect x="6" y="2" class="st1" width="1" height="1" /> <rect x="7" y="1" class="st1" width="1" height="1" /> <rect x="8" class="st1" width="1" height="1" /> <rect x="3" y="5" class="st1" width="1" height="1" /> <rect x="5" y="5" class="st1" width="1" height="1" /> <rect x="2" y="6" class="st1" width="1" height="1" /> <rect x="6" y="6" class="st1" width="1" height="1" /> <rect x="1" y="7" class="st1" width="1" height="1" /> <rect x="7" y="7" class="st1" width="1" height="1" /> <rect y="8" class="st1" width="1" height="1" /> <rect x="8" y="8" class="st1" width="1" height="1" /> </g> </g> </svg> 